<svg width="66" height="43" viewBox="0 0 66 43" fill="none" xmlns="http://www.w3.org/2000/svg">
<path d="M8.28137 34.6682C8.8241 34.846 9.25455 35.1454 9.5727 35.5665C9.89086 35.9782 10.0499 36.4929 10.0499 37.1105C10.0499 37.962 9.72242 38.6217 9.0674 39.0896C8.41238 39.5481 7.45791 39.7773 6.20401 39.7773H1.3194V29.952H5.92329C7.08361 29.952 7.97725 30.1812 8.6042 30.6398C9.23116 31.0889 9.54463 31.7112 9.54463 32.5066C9.54463 32.9932 9.43234 33.4236 9.20776 33.7979C8.98318 34.1722 8.67439 34.4623 8.28137 34.6682ZM3.14411 31.3837V34.0927H5.72678C6.36309 34.0927 6.84968 33.9804 7.18655 33.7558C7.53277 33.5219 7.70589 33.185 7.70589 32.7452C7.70589 32.296 7.53277 31.9592 7.18655 31.7346C6.84968 31.5007 6.36309 31.3837 5.72678 31.3837H3.14411ZM6.09172 38.3456C7.5047 38.3456 8.21119 37.8731 8.21119 36.928C8.21119 35.9829 7.5047 35.5103 6.09172 35.5103H3.14411V38.3456H6.09172ZM11.8289 32.282H13.5834V39.7773H11.8289V32.282ZM12.7132 31.0468C12.395 31.0468 12.1284 30.9486 11.9131 30.7521C11.6979 30.5462 11.5903 30.2935 11.5903 29.9941C11.5903 29.6947 11.6979 29.4467 11.9131 29.2502C12.1284 29.0443 12.395 28.9414 12.7132 28.9414C13.0314 28.9414 13.298 29.0396 13.5133 29.2361C13.7285 29.4233 13.8361 29.6619 13.8361 29.952C13.8361 30.2608 13.7285 30.5228 13.5133 30.738C13.3074 30.9439 13.0407 31.0468 12.7132 31.0468ZM18.9462 36.563L17.6408 37.7982V39.7773H15.8863V29.3625H17.6408V35.6507L21.2762 32.282H23.3816L20.2515 35.4261L23.6764 39.7773H21.5429L18.9462 36.563ZM31.5406 36.0718C31.5406 36.1934 31.5312 36.3665 31.5125 36.5911H25.6313C25.7343 37.1432 26.001 37.583 26.4314 37.9105C26.8712 38.2287 27.4139 38.3878 28.0596 38.3878C28.8831 38.3878 29.5615 38.1164 30.0949 37.5737L31.0353 38.6544C30.6984 39.0568 30.2727 39.3609 29.758 39.5668C29.2433 39.7727 28.6632 39.8756 28.0175 39.8756C27.194 39.8756 26.4688 39.7118 25.8419 39.3843C25.2149 39.0568 24.7284 38.603 24.3821 38.0228C24.0453 37.4333 23.8768 36.7689 23.8768 36.0297C23.8768 35.2998 24.0406 34.6448 24.3681 34.0646C24.705 33.4751 25.1682 33.0166 25.7577 32.6891C26.3472 32.3615 27.0116 32.1978 27.7508 32.1978C28.4807 32.1978 29.131 32.3615 29.7019 32.6891C30.282 33.0072 30.7312 33.461 31.0493 34.0506C31.3768 34.6307 31.5406 35.3045 31.5406 36.0718ZM27.7508 33.6014C27.1894 33.6014 26.7121 33.7698 26.3191 34.1067C25.9355 34.4342 25.7015 34.874 25.6173 35.4261H29.8703C29.7954 34.8834 29.5662 34.4436 29.1825 34.1067C28.7989 33.7698 28.3216 33.6014 27.7508 33.6014ZM37.4368 29.952C38.2883 29.952 39.0276 30.0924 39.6545 30.3731C40.2908 30.6538 40.7774 31.0562 41.1143 31.5802C41.4512 32.1042 41.6196 32.7265 41.6196 33.447C41.6196 34.1582 41.4512 34.7804 41.1143 35.3138C40.7774 35.8378 40.2908 36.2402 39.6545 36.5209C39.0276 36.8017 38.2883 36.942 37.4368 36.942H35.2191V39.7773H33.3944V29.952H37.4368ZM37.3526 35.398C38.148 35.398 38.7515 35.2296 39.1633 34.8927C39.575 34.5559 39.7808 34.074 39.7808 33.447C39.7808 32.8201 39.575 32.3381 39.1633 32.0013C38.7515 31.6644 38.148 31.496 37.3526 31.496H35.2191V35.398H37.3526ZM46.0682 32.1978C47.1724 32.1978 48.0146 32.4645 48.5947 32.9978C49.1842 33.5219 49.479 34.3173 49.479 35.384V39.7773H47.8227V38.865C47.6075 39.1925 47.2987 39.4452 46.8963 39.6229C46.5033 39.7914 46.0261 39.8756 45.4646 39.8756C44.9032 39.8756 44.4119 39.782 43.9908 39.5949C43.5697 39.3984 43.2422 39.1317 43.0083 38.7948C42.7837 38.4486 42.6714 38.0602 42.6714 37.6298C42.6714 36.9561 42.9194 36.418 43.4154 36.0156C43.9207 35.6039 44.7114 35.398 45.7875 35.398H47.7245V35.2858C47.7245 34.7617 47.5654 34.3594 47.2472 34.0786C46.9384 33.7979 46.4752 33.6576 45.8577 33.6576C45.4366 33.6576 45.0202 33.7231 44.6084 33.8541C44.2061 33.9851 43.8645 34.1675 43.5838 34.4015L42.896 33.1242C43.289 32.8247 43.7616 32.5955 44.3137 32.4364C44.8658 32.2773 45.4506 32.1978 46.0682 32.1978ZM45.8296 38.5983C46.2694 38.5983 46.6577 38.5 46.9946 38.3035C47.3408 38.0977 47.5841 37.8076 47.7245 37.4333V36.563H45.9138C44.9032 36.563 44.3979 36.8952 44.3979 37.5596C44.3979 37.8778 44.5242 38.1304 44.7769 38.3176C45.0295 38.5047 45.3804 38.5983 45.8296 38.5983ZM53.401 33.3768C53.9063 32.5908 54.7953 32.1978 56.0679 32.1978V33.8681C55.9182 33.84 55.7825 33.826 55.6609 33.826C54.9778 33.826 54.4444 34.0272 54.0607 34.4295C53.6771 34.8226 53.4852 35.3934 53.4852 36.142V39.7773H51.7307V32.282H53.401V33.3768ZM60.6162 36.563L59.3108 37.7982V39.7773H57.5563V29.3625H59.3108V35.6507L62.9462 32.282H65.0516L61.9216 35.4261L65.3464 39.7773H63.2129L60.6162 36.563Z" fill="#297FFF"/>
<path d="M36.6737 10.3652H32.8789" stroke="#297FFF" stroke-width="1.94118" stroke-miterlimit="10" stroke-linecap="round" stroke-linejoin="bevel"/>
<path d="M42.3659 20.7157L32.8789 10.3652" stroke="#297FFF" stroke-width="1.94118" stroke-miterlimit="10" stroke-linecap="round" stroke-linejoin="bevel"/>
<path d="M36.75 20.7158C36.75 23.4357 39.2546 25.7022 42.3663 25.7022C45.478 25.7022 47.9826 23.4357 47.9826 20.7158C47.9826 17.996 45.478 15.7295 42.3663 15.7295C40.3171 15.7295 38.4956 16.7117 37.509 18.2227" stroke="#297FFF" stroke-width="1.94118" stroke-miterlimit="10" stroke-linecap="round" stroke-linejoin="bevel"/>
<path d="M23.9999 17.0892C23.6964 17.0137 23.3169 17.0137 22.9374 17.0137C20.2811 17.0137 18.0801 18.978 18.0801 21.3956C18.0801 23.8132 20.2811 25.7776 22.9374 25.7776C25.5938 25.7776 27.7947 23.8132 27.7947 21.3956" stroke="#297FFF" stroke-width="1.94118" stroke-miterlimit="10" stroke-linecap="round" stroke-linejoin="bevel"/>
<path d="M32.44 5.42089C33.5926 5.03658 34.2464 3.89113 33.9003 2.86247C33.5541 1.8338 32.3392 1.31144 31.1866 1.69575C30.034 2.08006 29.3802 3.2255 29.7263 4.25417C30.0725 5.28284 31.2874 5.8052 32.44 5.42089Z" stroke="#297FFF" stroke-width="1.94118" stroke-miterlimit="10" stroke-linecap="round" stroke-linejoin="bevel"/>
<path d="M29.6154 7.19238C27.6421 9.30781 26.1242 12.1787 25.8965 13.312" stroke="#297FFF" stroke-width="1.94118" stroke-miterlimit="10" stroke-linecap="round" stroke-linejoin="bevel"/>
<path d="M29.4651 16.6357C27.2641 17.3157 25.0632 21.3199 22.5586 20.8666L29.4651 16.6357Z" fill="#297FFF"/>
<path d="M29.4651 16.6357C27.2641 17.3157 25.0632 21.3199 22.5586 20.8666" stroke="#297FFF" stroke-width="1.94118" stroke-miterlimit="10" stroke-linecap="round" stroke-linejoin="round"/>
<path d="M25.9727 13.3872C27.7942 13.1605 30.83 14.2182 31.8166 15.5781C33.1069 17.3913 31.8166 19.809 30.4505 21.3955" stroke="#297FFF" stroke-width="1.94118" stroke-miterlimit="10" stroke-linecap="round" stroke-linejoin="round"/>
<path d="M34.0952 16.107C34.4724 16.107 34.7782 15.8026 34.7782 15.427C34.7782 15.0515 34.4724 14.7471 34.0952 14.7471C33.7179 14.7471 33.4121 15.0515 33.4121 15.427C33.4121 15.8026 33.7179 16.107 34.0952 16.107Z" fill="#297FFF"/>
</svg>
